<?xml version="1.0" encoding="UTF-8"?><svg xmlns="http://www.w3.org/2000/svg" xmlns:xlink="http://www.w3.org/1999/xlink" version="1.1" id="Layer_1" x="0px" y="0px" viewBox="0 0 24 24" xml:space="preserve"><path fill="#303C42" d="M22.577 15.535l-2.667-5.333a2.503 2.503 0 0 0-1.856-1.353L12.74 8.03A2.678 2.678 0 0 0 10 9.384L8.367 6.115A3.932 3.932 0 0 0 9 4c0-2.206-1.794-4-4-4S1 1.794 1 4c0 2.094 1.623 3.798 3.674 3.967l4.655 9.31a.491.491 0 0 1-.022.486.492.492 0 0 1-.425.237H4.713a1.715 1.715 0 0 0-1.532 2.48l.372.744a.5.5 0 0 0 .298.253l7.063 2.207a6.922 6.922 0 0 0 5.168-.416l4.7-2.35A3.99 3.99 0 0 0 23 17.329c0-.619-.146-1.24-.423-1.794zM7.814 5.009l-.94-1.879A2.034 2.034 0 0 0 5.045 2C3.918 2 3 2.917 3 4.135c0 .317.075.633.216.915l.9 1.802A2.994 2.994 0 0 1 2 4c0-1.654 1.346-3 3-3s3 1.346 3 3c0 .347-.067.686-.186 1.01z"/><path fill="#FFE082" d="M20.335 20.023l-4.7 2.35a5.989 5.989 0 0 1-4.423.357l-6.86-2.144-.277-.553A.714.714 0 0 1 4.713 19h4.169c.524 0 1-.266 1.276-.711.275-.446.3-.992.066-1.46L4.11 4.602C4.038 4.458 4 4.297 4 4.045a1.046 1.046 0 0 1 1.98-.467l3.573 7.146c.17.339.725.339.894 0l.403-.807a1.674 1.674 0 0 1 1.737-.898l5.315.818c.48.074.896.377 1.113.812l2.667 5.333c.208.416.318.882.318 1.347a2.996 2.996 0 0 1-1.665 2.694z"/><path opacity="0.1" d="M21.682 15.982l-2.667-5.333a1.502 1.502 0 0 0-1.113-.812l-.527-.081c.369.126.682.386.859.74L20.9 15.83c.208.416.318.881.318 1.347a2.996 2.996 0 0 1-1.665 2.694l-4.701 2.35a5.99 5.99 0 0 1-3.259.589c1.348.322 2.801.184 4.04-.436l4.701-2.35A2.996 2.996 0 0 0 22 17.328c0-.465-.11-.931-.318-1.347z"/><linearGradient id="SVGID_1_" gradientUnits="userSpaceOnUse" x1="-1.2304398" y1="7.8969474" x2="22.6291161" y2="19.0228405"><stop offset="0" stop-color="#FFF" stop-opacity="0.2"/><stop offset="1" stop-color="#FFF" stop-opacity="0"/></linearGradient><path fill="url(#SVGID_1_)" d="M22.577 15.535l-2.667-5.333a2.503 2.503 0 0 0-1.856-1.353L12.74 8.03A2.678 2.678 0 0 0 10 9.384L8.367 6.115A3.932 3.932 0 0 0 9 4c0-2.206-1.794-4-4-4S1 1.794 1 4c0 2.094 1.623 3.798 3.674 3.967l4.655 9.31a.491.491 0 0 1-.022.486.492.492 0 0 1-.425.237H4.713a1.715 1.715 0 0 0-1.532 2.48l.372.744a.5.5 0 0 0 .298.253l7.063 2.207a6.922 6.922 0 0 0 5.168-.416l4.7-2.35A3.99 3.99 0 0 0 23 17.329c0-.619-.146-1.24-.423-1.794zM7.814 5.009l-.94-1.879A2.034 2.034 0 0 0 5.045 2C3.918 2 3 2.917 3 4.135c0 .317.075.633.216.915l.9 1.802A2.994 2.994 0 0 1 2 4c0-1.654 1.346-3 3-3s3 1.346 3 3c0 .347-.067.686-.186 1.01z"/><metadata><rdf:RDF xmlns:rdf="http://www.w3.org/1999/02/22-rdf-syntax-ns#" xmlns:rdfs="http://www.w3.org/2000/01/rdf-schema#" xmlns:dc="http://purl.org/dc/elements/1.1/"><rdf:Description about="https://iconscout.com/legal#licenses" dc:title="touch,hand,gesture,click,point" dc:description="touch,hand,gesture,click,point" dc:publisher="Iconscout" dc:date="2017-08-16" dc:format="image/svg+xml" dc:language="en"><dc:creator><rdf:Bag><rdf:li>Those Icons</rdf:li></rdf:Bag></dc:creator></rdf:Description></rdf:RDF></metadata></svg>